<?xml version="1.0" encoding="utf-8"?><!DOCTYPE svg PUBLIC "-//W3C//DTD SVG 1.1//EN" "http://www.w3.org/Graphics/SVG/1.1/DTD/svg11.dtd"><svg xmlns="http://www.w3.org/2000/svg" viewBox="0 0 283.177 61"><path fill="#ffffff" d="M85.238,21.658c-1.03-0.87-2.265-1.51-3.705-1.92c-1.44-0.41-3.03-0.615-4.77-0.615 c-0.84,0-1.8,0.03-2.88,0.09c-1.08,0.06-2.1,0.2-3.06,0.42v20.19c0.96,0.22,1.969,0.364,3.03,0.435 c1.06,0.07,2.01,0.105,2.85,0.105c1.76,0,3.365-0.215,4.815-0.645c1.45-0.43,2.689-1.09,3.72-1.98s1.825-2,2.385-3.33 c0.56-1.33,0.84-2.895,0.84-4.695c0-1.84-0.28-3.424-0.84-4.755C87.063,23.628,86.268,22.527,85.238,21.658z M82.628,35.127 c-1.25,1.29-3.145,1.935-5.685,1.935c-0.62,0-1.11-0.004-1.47-0.015c-0.36-0.01-0.65-0.024-0.87-0.045v-14.52 c0.48-0.06,1.28-0.09,2.4-0.09c2.56,0,4.45,0.63,5.67,1.89c1.22,1.26,1.83,3.07,1.83,5.43 C84.503,32.033,83.878,33.837,82.628,35.127z"/><path fill="#ffffff" d="M98.843,24.042c-0.92,0-1.82,0.175-2.7,0.525c-0.88,0.35-1.66,0.87-2.34,1.56 c-0.68,0.69-1.225,1.556-1.635,2.595c-0.41,1.04-0.615,2.25-0.615,3.63c0,1.18,0.16,2.265,0.48,3.255 c0.32,0.99,0.81,1.85,1.47,2.58c0.66,0.73,1.5,1.3,2.52,1.71s2.22,0.615,3.6,0.615c0.54,0,1.07-0.03,1.59-0.09 c0.52-0.06,1.005-0.135,1.455-0.225c0.45-0.09,0.85-0.19,1.2-0.3c0.35-0.109,0.625-0.214,0.825-0.315l-0.48-2.97 c-0.42,0.18-0.995,0.35-1.725,0.51c-0.73,0.16-1.535,0.24-2.415,0.24c-1.5,0-2.645-0.345-3.435-1.035s-1.235-1.665-1.335-2.925 h10.35c0.02-0.2,0.035-0.424,0.045-0.675c0.01-0.25,0.015-0.475,0.015-0.675c0-2.66-0.605-4.66-1.815-6 C102.688,24.713,101.003,24.042,98.843,24.042z M95.333,30.732c0.06-0.459,0.169-0.91,0.33-1.35c0.16-0.439,0.385-0.83,0.675-1.17 c0.29-0.34,0.645-0.615,1.065-0.825s0.91-0.315,1.47-0.315c0.54,0,1.005,0.095,1.395,0.285c0.39,0.19,0.72,0.45,0.99,0.78 s0.475,0.72,0.615,1.17c0.14,0.45,0.21,0.925,0.21,1.425H95.333z"/><path fill="#ffffff" d="M129.878,26.098c-0.45-0.63-1.07-1.12-1.86-1.47c-0.79-0.35-1.795-0.525-3.015-0.525 c-0.48,0-0.955,0.05-1.425,0.15c-0.47,0.101-0.915,0.225-1.335,0.375s-0.8,0.315-1.14,0.495c-0.34,0.18-0.62,0.35-0.84,0.51 c-0.46-0.459-1.035-0.83-1.725-1.11c-0.69-0.28-1.575-0.42-2.655-0.42c-1.26,0-2.456,0.09-3.585,0.27 c-1.13,0.18-2.045,0.37-2.745,0.57v15.18h3.63v-12.66c0.24-0.04,0.6-0.09,1.08-0.15s0.919-0.09,1.32-0.09 c1.12,0,1.885,0.365,2.295,1.095c0.41,0.73,0.615,1.916,0.615,3.555v8.25h3.63v-8.67c0-0.64-0.03-1.24-0.09-1.8 c-0.06-0.56-0.17-1.09-0.33-1.59c0.26-0.18,0.65-0.365,1.17-0.555c0.52-0.189,1.07-0.285,1.65-0.285c1.14,0,1.91,0.365,2.31,1.095 c0.4,0.73,0.6,1.916,0.6,3.555v8.25h3.63v-8.82c0-1.06-0.085-2.035-0.255-2.925C130.638,27.488,130.328,26.728,129.878,26.098z"/><path fill="#ffffff" d="M141.923,24.042c-0.92,0-1.821,0.175-2.701,0.525c-0.88,0.35-1.66,0.87-2.34,1.56 c-0.68,0.69-1.225,1.556-1.635,2.595c-0.41,1.04-0.615,2.25-0.615,3.63c0,1.18,0.16,2.265,0.48,3.255 c0.32,0.99,0.81,1.85,1.47,2.58c0.66,0.73,1.5,1.3,2.52,1.71s2.22,0.615,3.6,0.615c0.54,0,1.07-0.03,1.59-0.09 c0.52-0.06,1.006-0.135,1.455-0.225c0.45-0.09,0.85-0.19,1.2-0.3c0.35-0.109,0.625-0.214,0.825-0.315l-0.48-2.97 c-0.42,0.18-0.994,0.35-1.725,0.51c-0.73,0.16-1.535,0.24-2.415,0.24c-1.5,0-2.645-0.345-3.435-1.035s-1.235-1.665-1.335-2.925 h10.35c0.02-0.2,0.034-0.424,0.045-0.675c0.01-0.25,0.015-0.475,0.015-0.675c0-2.66-0.605-4.66-1.814-6 C145.767,24.713,144.083,24.042,141.923,24.042z M138.413,30.732c0.06-0.459,0.169-0.91,0.33-1.35 c0.16-0.439,0.385-0.83,0.675-1.17c0.29-0.34,0.645-0.615,1.065-0.825s0.91-0.315,1.47-0.315c0.54,0,1.006,0.095,1.395,0.285 c0.391,0.19,0.721,0.45,0.99,0.78c0.271,0.33,0.475,0.72,0.615,1.17c0.141,0.45,0.211,0.925,0.211,1.425H138.413z"/><path fill="#ffffff" d="M160.478,37.152c-0.51,0.14-1.095,0.21-1.755,0.21c-0.96,0-1.64-0.27-2.04-0.81s-0.6-1.44-0.6-2.7v-6.39 h5.58v-3.03h-5.58v-4.74l-3.631,0.6v13.59c0,1.041,0.091,1.965,0.271,2.775c0.181,0.81,0.489,1.5,0.931,2.07 c0.439,0.57,1.035,1.005,1.785,1.305c0.75,0.3,1.684,0.45,2.805,0.45c0.92,0,1.719-0.095,2.399-0.285 c0.68-0.19,1.229-0.375,1.65-0.555l-0.601-2.88C161.393,36.882,160.987,37.013,160.478,37.152z"/><path fill="#ffffff" d="M173.093,24.268c-0.32-0.05-0.641-0.09-0.96-0.12c-0.32-0.03-0.601-0.045-0.84-0.045 c-1.28,0-2.445,0.115-3.495,0.345c-1.051,0.23-1.926,0.475-2.625,0.735v14.94h3.63v-12.57c0.181-0.06,0.495-0.13,0.944-0.21 c0.451-0.08,0.875-0.12,1.275-0.12c0.7,0,1.314,0.055,1.846,0.165c0.529,0.11,0.945,0.215,1.244,0.315l0.631-3.06 c-0.18-0.06-0.42-0.125-0.721-0.195C173.723,24.378,173.413,24.318,173.093,24.268z"/><path fill="#ffffff" d="M179.093,17.593c-0.62,0-1.15,0.2-1.59,0.6c-0.44,0.4-0.66,0.95-0.66,1.65c0,0.68,0.22,1.22,0.66,1.62 c0.439,0.4,0.97,0.6,1.59,0.6c0.6,0,1.119-0.2,1.561-0.6c0.439-0.4,0.659-0.939,0.659-1.62c0-0.7-0.22-1.25-0.659-1.65 C180.212,17.792,179.692,17.593,179.093,17.593z"/><rect x="177.292" y="24.433" fill="#ffffff" width="3.631" height="15.69"/><path fill="#ffffff" d="M209.838,21.927c-1.011-0.88-2.216-1.54-3.614-1.979c-1.4-0.44-2.94-0.66-4.621-0.66 c-0.84,0-1.72,0.045-2.64,0.135s-1.729,0.235-2.43,0.435v20.04c0.7,0.181,1.51,0.315,2.43,0.405s1.8,0.135,2.64,0.135 c1.681,0,3.221-0.22,4.621-0.66c1.398-0.439,2.604-1.1,3.614-1.979c1.01-0.88,1.795-1.98,2.355-3.3c0.56-1.32,0.84-2.87,0.84-4.65 c0-1.76-0.28-3.3-0.84-4.62C211.633,23.908,210.848,22.808,209.838,21.927z M210.303,33.522c-0.38,1.091-0.95,2.016-1.71,2.775 c-0.76,0.761-1.699,1.346-2.82,1.755c-1.119,0.41-2.43,0.615-3.93,0.615c-1.08,0-1.865-0.03-2.355-0.09 c-0.49-0.061-0.795-0.101-0.914-0.12v-17.19c0.119-0.02,0.424-0.06,0.914-0.12c0.49-0.06,1.275-0.09,2.355-0.09 c1.5,0,2.811,0.205,3.93,0.615c1.121,0.41,2.061,0.995,2.82,1.755c0.76,0.761,1.33,1.68,1.71,2.76s0.57,2.301,0.57,3.66 C210.873,31.208,210.683,32.432,210.303,33.522z"/><path fill="#ffffff" d="M223.322,24.387c-0.859,0-1.694,0.165-2.505,0.495c-0.81,0.33-1.53,0.835-2.16,1.515 c-0.63,0.681-1.14,1.525-1.529,2.535c-0.391,1.011-0.585,2.195-0.585,3.556c0,1.18,0.14,2.265,0.42,3.255 c0.279,0.989,0.729,1.845,1.35,2.564s1.41,1.28,2.37,1.681c0.96,0.399,2.12,0.6,3.479,0.6c1.04,0,1.945-0.11,2.716-0.33 c0.77-0.22,1.294-0.41,1.574-0.57l-0.359-1.68c-0.28,0.141-0.73,0.311-1.351,0.51c-0.62,0.2-1.46,0.3-2.52,0.3 c-1.92,0-3.32-0.51-4.2-1.529c-0.88-1.021-1.35-2.479-1.41-4.38h10.891c0.02-0.14,0.034-0.29,0.045-0.45 c0.01-0.16,0.015-0.32,0.015-0.48c0-2.58-0.565-4.489-1.695-5.729S225.223,24.387,223.322,24.387z M218.673,31.257 c0.04-0.68,0.175-1.33,0.404-1.95c0.23-0.619,0.55-1.165,0.96-1.635s0.891-0.845,1.44-1.125s1.175-0.42,1.875-0.42 c1.32,0,2.34,0.45,3.06,1.35c0.721,0.9,1.101,2.16,1.141,3.78H218.673z"/><path fill="#ffffff" d="M241.563,33.252c-0.421-0.35-0.905-0.649-1.455-0.898c-0.551-0.249-1.125-0.492-1.726-0.731 c-0.58-0.239-1.095-0.458-1.545-0.657s-0.83-0.413-1.14-0.645c-0.311-0.23-0.545-0.495-0.705-0.797 c-0.16-0.3-0.24-0.661-0.24-1.082s0.09-0.776,0.271-1.066c0.18-0.291,0.42-0.531,0.72-0.722s0.645-0.331,1.035-0.421 c0.39-0.09,0.805-0.136,1.245-0.136c1.1,0,1.935,0.101,2.505,0.3c0.569,0.2,0.975,0.36,1.215,0.48l0.45-1.74 c-0.28-0.14-0.766-0.3-1.455-0.479c-0.69-0.181-1.565-0.271-2.625-0.271c-1.66,0-2.966,0.39-3.915,1.17 c-0.95,0.78-1.425,1.8-1.425,3.061c0,0.659,0.119,1.22,0.359,1.68s0.56,0.854,0.96,1.185s0.86,0.62,1.38,0.87 c0.521,0.251,1.07,0.495,1.65,0.735c0.72,0.3,1.324,0.561,1.815,0.78c0.489,0.22,0.885,0.449,1.185,0.689s0.515,0.51,0.645,0.811 c0.13,0.3,0.195,0.659,0.195,1.08c0,0.88-0.365,1.505-1.095,1.875c-0.73,0.37-1.655,0.555-2.775,0.555 c-0.62,0-1.165-0.04-1.635-0.12s-0.875-0.175-1.215-0.285c-0.341-0.109-0.61-0.21-0.811-0.3s-0.33-0.154-0.39-0.195l-0.51,1.771 c0.24,0.12,0.72,0.295,1.439,0.524c0.721,0.23,1.76,0.346,3.12,0.346c1.82,0,3.255-0.36,4.306-1.08 c1.05-0.721,1.574-1.78,1.574-3.181c0-0.739-0.13-1.354-0.39-1.845C242.323,34.023,241.983,33.602,241.563,33.252z"/><path fill="#ffffff" d="M247.713,18.567c-0.4,0-0.74,0.136-1.021,0.405c-0.28,0.271-0.42,0.636-0.42,1.095 c0,0.461,0.14,0.825,0.42,1.096c0.28,0.27,0.62,0.404,1.021,0.404c0.399,0,0.739-0.135,1.02-0.404 c0.28-0.271,0.421-0.635,0.421-1.096c0-0.459-0.141-0.824-0.421-1.095C248.452,18.703,248.112,18.567,247.713,18.567z"/><rect x="246.753" y="24.748" fill="#ffffff" width="1.95" height="15.51"/><path fill="#ffffff" d="M260.282,24.448c-1.14,0-2.165,0.194-3.075,0.585c-0.91,0.39-1.68,0.93-2.31,1.619 c-0.63,0.69-1.115,1.506-1.455,2.445c-0.341,0.94-0.51,1.961-0.51,3.061c0,1.36,0.189,2.515,0.569,3.465s0.886,1.725,1.516,2.325 c0.63,0.6,1.364,1.04,2.205,1.319c0.84,0.28,1.71,0.42,2.609,0.42c0.56,0,1.065-0.045,1.516-0.135 c0.449-0.09,0.85-0.205,1.199-0.345s0.646-0.274,0.886-0.405c0.239-0.13,0.42-0.244,0.54-0.345v1.02 c0,1.72-0.416,2.936-1.245,3.646c-0.83,0.709-2.165,1.064-4.005,1.064c-0.841,0-1.676-0.08-2.506-0.239 c-0.83-0.161-1.484-0.351-1.965-0.57l-0.39,1.77c0.58,0.2,1.275,0.375,2.085,0.525s1.715,0.225,2.715,0.225 c2.42,0,4.23-0.495,5.43-1.484c1.2-0.99,1.801-2.646,1.801-4.965v-14.16c-0.561-0.181-1.275-0.365-2.146-0.556 C262.877,24.542,261.723,24.448,260.282,24.448z M263.942,36.627c-0.4,0.34-0.965,0.641-1.695,0.899 c-0.73,0.261-1.535,0.391-2.415,0.391c-0.6,0-1.19-0.105-1.77-0.315c-0.581-0.21-1.096-0.544-1.545-1.005 c-0.45-0.46-0.815-1.055-1.096-1.785c-0.28-0.729-0.42-1.604-0.42-2.625c0-0.88,0.12-1.685,0.36-2.415 c0.24-0.729,0.59-1.359,1.05-1.89c0.46-0.529,1.015-0.939,1.665-1.23c0.649-0.289,1.396-0.435,2.235-0.435 c1,0,1.77,0.045,2.31,0.135s0.979,0.186,1.32,0.285V36.627z"/><path fill="#ffffff" d="M282.843,28.677c-0.2-0.88-0.535-1.635-1.005-2.265c-0.471-0.63-1.101-1.115-1.891-1.455 s-1.774-0.51-2.955-0.51c-1.42,0-2.62,0.1-3.6,0.3c-0.98,0.2-1.76,0.38-2.34,0.54v14.97h1.95v-13.62 c0.199-0.079,0.635-0.17,1.305-0.27c0.67-0.101,1.465-0.15,2.385-0.15c0.86,0,1.575,0.105,2.146,0.315 c0.569,0.21,1.029,0.555,1.38,1.034c0.35,0.48,0.6,1.101,0.75,1.86c0.149,0.761,0.225,1.69,0.225,2.79v8.04h1.95v-8.67 C283.143,30.528,283.042,29.558,282.843,28.677z"/><path fill="#343838" d="M30.5,0C13.682,0,0,13.682,0,30.5S13.682,61,30.5,61S61,47.318,61,30.5S47.318,0,30.5,0z"/><path fill="#00B4CC" d="M53.592,29.041c-0.64-1.571-1.716-3.119-3.199-4.601c-1.515-1.515-3.079-2.607-4.649-3.247 c-1.581-0.645-3.192-0.905-4.786-0.769c-1.586,0.133-3.171,0.636-4.709,1.492c-1.517,0.845-3.006,1.993-4.426,3.413 c-0.681,0.682-1.44,1.489-2.255,2.4c-0.832,0.93-1.561,1.891-2.167,2.856l-0.212,0.338l16.744,16.744l0.337-0.211 c0.958-0.601,1.914-1.317,2.84-2.128c0.903-0.791,1.708-1.539,2.393-2.222c1.437-1.437,2.59-2.948,3.427-4.491 c0.848-1.563,1.337-3.167,1.454-4.77C54.502,32.236,54.235,30.619,53.592,29.041z M40.957,25.086l0.082,0.496 c1.844,0.03,3.686,0.951,5.474,2.739c1.754,1.755,2.66,3.604,2.69,5.496c0.029,1.886-0.933,3.82-2.86,5.747 c-0.492,0.493-0.884,0.878-1.179,1.155c-0.134,0.126-0.256,0.24-0.368,0.341L33.813,30.075c0.35-0.404,0.862-0.943,1.53-1.611 c1.914-1.913,3.802-2.883,5.613-2.883L40.957,25.086C40.957,25.086,40.957,25.086,40.957,25.086z"/><path fill="#FFFFFF" d="M17.067,13.333l-0.337,0.212c-0.965,0.605-1.92,1.321-2.84,2.127c-0.921,0.807-1.726,1.555-2.392,2.222 c-1.438,1.438-2.592,2.95-3.428,4.491c-0.848,1.56-1.336,3.165-1.454,4.77c-0.118,1.61,0.149,3.227,0.793,4.805 c0.64,1.57,1.715,3.118,3.197,4.601c1.514,1.514,3.079,2.607,4.649,3.247c1.308,0.533,2.64,0.804,3.958,0.804 c0.276,0,0.552-0.012,0.828-0.035c1.586-0.133,3.171-0.635,4.71-1.492c1.516-0.845,3.004-1.993,4.424-3.413 c0.677-0.676,1.415-1.461,2.255-2.4c0.833-0.932,1.562-1.893,2.167-2.857l0.211-0.337L17.067,13.333z M16.203,19.942l10.984,10.984 c-0.351,0.405-0.863,0.944-1.53,1.611c-1.912,1.912-3.799,2.882-5.695,2.882c0,0-0.001,0-0.002,0 c-1.845-0.03-3.687-0.951-5.473-2.738c-1.755-1.755-2.661-3.604-2.69-5.496c-0.03-1.886,0.932-3.819,2.858-5.745 c0.494-0.493,0.887-0.878,1.183-1.158C15.97,20.156,16.092,20.043,16.203,19.942z"/></svg>