<?xml version="1.0" encoding="utf-8"?><!DOCTYPE svg PUBLIC "-//W3C//DTD SVG 1.1//EN" "http://www.w3.org/Graphics/SVG/1.1/DTD/svg11.dtd"><svg xmlns="http://www.w3.org/2000/svg" viewBox="0 0 61 61"><path fill="#343838" d="M30.5,0C13.682,0,0,13.682,0,30.5S13.682,61,30.5,61S61,47.318,61,30.5S47.318,0,30.5,0z"/><path fill="#00B4CC" d="M53.592,29.041c-0.64-1.571-1.716-3.119-3.199-4.601c-1.515-1.515-3.079-2.607-4.649-3.247 c-1.581-0.645-3.192-0.905-4.786-0.769c-1.586,0.133-3.171,0.636-4.709,1.492c-1.517,0.845-3.006,1.993-4.426,3.413 c-0.681,0.682-1.44,1.489-2.255,2.4c-0.832,0.93-1.561,1.891-2.167,2.856l-0.212,0.338l16.744,16.744l0.337-0.211 c0.958-0.601,1.914-1.317,2.84-2.128c0.903-0.791,1.708-1.539,2.393-2.222c1.437-1.437,2.59-2.948,3.427-4.491 c0.848-1.563,1.337-3.167,1.454-4.77C54.502,32.236,54.235,30.619,53.592,29.041z M40.957,25.086l0.082,0.496 c1.844,0.03,3.686,0.951,5.474,2.739c1.754,1.755,2.66,3.604,2.69,5.496c0.029,1.886-0.933,3.82-2.86,5.747 c-0.492,0.493-0.884,0.878-1.179,1.155c-0.134,0.126-0.256,0.24-0.368,0.341L33.813,30.075c0.35-0.404,0.862-0.943,1.53-1.611 c1.914-1.913,3.802-2.883,5.613-2.883L40.957,25.086C40.957,25.086,40.957,25.086,40.957,25.086z"/><path fill="#FFFFFF" d="M17.067,13.333l-0.337,0.212c-0.965,0.605-1.92,1.321-2.84,2.127c-0.921,0.807-1.726,1.555-2.392,2.222 c-1.438,1.438-2.592,2.95-3.428,4.491c-0.848,1.56-1.336,3.165-1.454,4.77c-0.118,1.61,0.149,3.227,0.793,4.805 c0.64,1.57,1.715,3.118,3.197,4.601c1.514,1.514,3.079,2.607,4.649,3.247c1.308,0.533,2.64,0.804,3.958,0.804 c0.276,0,0.552-0.012,0.828-0.035c1.586-0.133,3.171-0.635,4.71-1.492c1.516-0.845,3.004-1.993,4.424-3.413 c0.677-0.676,1.415-1.461,2.255-2.4c0.833-0.932,1.562-1.893,2.167-2.857l0.211-0.337L17.067,13.333z M16.203,19.942l10.984,10.984 c-0.351,0.405-0.863,0.944-1.53,1.611c-1.912,1.912-3.799,2.882-5.695,2.882c0,0-0.001,0-0.002,0 c-1.845-0.03-3.687-0.951-5.473-2.738c-1.755-1.755-2.661-3.604-2.69-5.496c-0.03-1.886,0.932-3.819,2.858-5.745 c0.494-0.493,0.887-0.878,1.183-1.158C15.97,20.156,16.092,20.043,16.203,19.942z"/></svg>